<svg width="2732" height="5875" viewBox="0 0 2732 5875" fill="none" xmlns="http://www.w3.org/2000/svg">
<path d="M2689.57 828.993C2770.77 609.718 2564.76 413.422 2408.54 298.47C2317.21 231.27 2221.35 165.827 2122.85 109.529C1963.3 18.3429 1804.98 -1.63319 1624.52 42.5157C1357.81 107.763 1203.16 308.889 1135.49 570.246C1063.02 850.136 1131.08 1097.83 1407.69 1216.65C1649.62 1320.56 1972.54 1332.19 2203.81 1190.12C2377.04 1083.7 2381.28 853.986 2226.14 730.334C1927.45 492.257 1427.37 563.692 1296.49 950.92C1275.86 1011.95 1271.08 1081.85 1279.73 1145.45C1292.2 1237 1342.36 1318.95 1350.92 1411.17C1380.3 1727.47 924.873 1782.06 706.959 1794.17C612.67 1799.41 67.1055 1812.12 245.853 1560.56C302.262 1481.17 434.133 1402.32 512.932 1363.24C749.167 1246.07 1011.75 1170.84 1269.96 1122.18C1529.04 1073.35 1882.14 1019.93 2074.46 1251.55C2204.35 1408 2221.44 1676.44 2430.87 1761.6C2560.94 1814.48 2722.71 1744.1 2711.44 1588.01C2695.45 1366.49 2417.25 1266.94 2234.52 1242.24C1971.83 1206.74 1729.19 1275.65 1550.54 1474C1332.75 1715.79 1195.94 2038.43 1105.25 2347.03C1078.92 2436.63 1065.92 2493.52 1048.02 2581.58C1041.68 2612.75 1038.91 2694.56 1009.86 2721.19C945.578 2780.13 782.911 2720.58 734.411 2668.6C592.654 2516.7 887.897 2414.34 987.531 2402.88C1423.13 2352.78 1853.15 2539.22 2288.49 2532.25C2325.96 2531.65 2363.66 2527.72 2400.16 2519.22C2418.94 2514.84 2445.35 2512.09 2452.27 2494.09C2457.39 2480.77 2434.39 2469.95 2421.1 2464.77C2335.52 2431.46 2174.17 2428.53 2100.98 2426.15C1492.38 2406.3 872.264 2454.44 270.979 2548.07C209.635 2557.63 148.413 2568.65 88.1188 2583.44C64.7052 2589.19 28.9506 2586.86 20.6513 2609.5C14.4018 2626.55 54.736 2623.19 72.7642 2625.32C185.661 2638.67 343.209 2628.57 447.325 2621.14C785.445 2596.98 1123.95 2551.22 1456.55 2485.71C1648.05 2448 1920.45 2412.1 2082.37 2284.21C2267.08 2138.31 1954.47 1922.74 1847.39 1853.74C1763.38 1799.61 1656.38 1747.05 1562.63 1712.27C1525.22 1698.39 1486.79 1686.8 1447.71 1678.76C1360.79 1660.89 1396.02 1688.96 1450.03 1721.57C1563.31 1789.97 1686.12 1841.49 1800.4 1908.19C1943.29 1991.59 2185.41 2121.89 2105.17 2337.73C2076.78 2414.07 2020.96 2478.25 1966.97 2539.23C1806.5 2720.48 1586.99 2876.06 1396.99 3019.49C1098.9 3244.53 759.324 3457.09 512.001 3742.22C462.353 3799.45 366.933 3924.75 413.359 4020.51C431.783 4058.51 473.013 4081.59 509.209 4103.34C618.083 4168.76 738.45 4190.74 862.367 4208.52C1243.5 4263.2 1650.02 4247.43 2027.93 4175.01C2065.7 4167.77 2258.85 4156.66 2220.09 4079.14C2085.89 3810.7 1915.43 3559.87 1805.05 3279.64C1739.54 3113.3 1712.79 3011.78 1694.31 2833.81C1672.79 2626.55 1696.5 2422.67 1703.15 2215.8C1704.36 2178.12 1706.04 2140.26 1702.69 2102.71C1701.04 2084.31 1704.9 2057.22 1688.26 2049.2C1674.23 2042.43 1660.64 2065.43 1651.5 2078.05C1591.62 2160.75 1539.34 2299.77 1510.52 2386.59C1441.95 2593.16 1401.88 2747.4 1403.5 2969.7C1405.91 3299.48 1519.32 3599.27 1722.69 3857.63C1862.56 4035.3 2046.93 4163.66 2235.45 4282.51C2284.76 4313.6 2403.12 4380.61 2353.63 4411.42C2311.25 4437.81 2155.04 4466.85 2128.43 4470.99C1856.59 4513.23 1578.98 4522.15 1304.4 4521.71C1166.41 4521.49 984.69 4519.28 842.824 4497.98C750.172 4484.06 675.756 4458.39 756.745 4365.81C807.636 4307.64 966.74 4179.8 1014.52 4141.5C1207.89 3986.52 1408.84 3840.81 1594.74 3676.6C1657.6 3621.07 1823.14 3495.6 1826.92 3388.53C1829.74 3308.61 1696.22 3288.35 1648.25 3280.1C1579.4 3268.26 1508.67 3263.66 1438.87 3267.07C1403.08 3268.82 1297.35 3276.77 1373.72 3333.62C1421.29 3369.02 1563.64 3437.42 1604.51 3457.41C1794.33 3550.26 1988.02 3635.97 2170.77 3742.68C2259.45 3794.46 2360.82 3852.13 2424.82 3937.21C2508.44 4048.36 2459.92 4169.37 2394.58 4276.46C2282.93 4459.43 2123.22 4616.44 1975.81 4769.75C1866.42 4883.53 1738.98 4994.2 1646.39 5123.44C1511.08 5312.29 1880.42 5371.6 1926.49 5523.66C1950.37 5602.47 1913.54 5700.12 1851.11 5750.29C1772.73 5813.29 1669.47 5813.13 1574.73 5794.5C1411.83 5762.46 1248.85 5688.59 1118.74 5585.55C939.953 5443.96 878.982 5253.39 894.472 5032.22C894.915 5025.9 917.688 4830.33 931.696 4838.63C1058.76 4913.94 1170.91 4979.51 1316.03 5022.92C1464.26 5067.25 1616.78 5091.66 1767.36 5125.76C1849.64 5144.4 1946.94 5162.52 2010.25 5224.89C2079.56 5293.17 2096.09 5399.37 2081.9 5491.08C2073.82 5543.33 2061.89 5602.61 2102.37 5646.51C2200.77 5753.22 2552.54 5594.63 2408.07 5491.08C2293.46 5408.93 1883 5438.91 1984.65 5646.98C1994.74 5667.62 2102.45 5855 2069.8 5855" stroke="#00FFFF" stroke-width="40" stroke-linecap="round"/>
</svg>
