<svg width="798" height="38" viewBox="0 0 798 38" fill="none" xmlns="http://www.w3.org/2000/svg">
<path d="M10.2891 25.9567C17.5777 25.9567 24.8218 24.0544 31.8585 22.2953C45.5896 18.8625 58.4458 18.7669 72.5343 18.7669C88.8548 18.7669 104.812 21.1635 121.066 21.1635C131.895 21.1635 142.724 21.1635 153.553 21.1635C169.068 21.1635 184.165 24.7584 199.688 24.7584C222.322 24.7584 244.957 24.7584 267.591 24.7584C298.091 24.7584 328.465 26.7625 358.995 25.8902C377.338 25.3661 395.702 20.7653 413.984 19.0332C420.68 18.3989 427.494 17.4583 434.222 17.5686C440.781 17.6761 447.205 20.3537 453.661 21.4298C465.283 23.3668 477.414 22.3618 489.145 22.3618C503.835 22.3618 518.525 22.3618 533.215 22.3618C540.576 22.3618 548.02 23.1075 555.251 24.4921C561.408 25.6711 566.978 28.2694 573.359 28.3533C590.216 28.5752 607.094 28.3533 623.954 28.3533C637.31 28.3533 651.287 28.3569 663.964 23.5601C686.357 15.087 709.439 11.5771 733.266 11.5771C744.639 11.5771 755.887 10.3788 767.218 10.3788C770.871 10.3788 786.022 10.0419 787.988 13.9737" stroke="#FF00FF" stroke-width="19" stroke-linecap="round"/>
</svg>
