<?xml version="1.0" encoding="utf-8"?>
<!-- Generator: Adobe Illustrator 28.3.0, SVG Export Plug-In . SVG Version: 6.00 Build 0)  -->
<svg version="1.1" id="Calque_2" xmlns="http://www.w3.org/2000/svg" xmlns:xlink="http://www.w3.org/1999/xlink" x="0px" y="0px"
	 viewBox="0 0 150 150" style="enable-background:new 0 0 150 150;" xml:space="preserve">
<style type="text/css">
	.st0{fill:#F3FF03;}
</style>
<g>
	<path class="st0" d="M69.2,28.5l3.7-17.5c0.2-0.8,0.8-1.5,1.5-1.6c1.1-0.2,1.6,0.8,2,1.7l7.5,17.3c0.4,0.9,1.1,1.6,2,1.8
		c1.3,0.3,1.9-0.6,2.5-1.4c2.6-3.6,5.8-6.8,9.3-9.4c0.6-0.4,1.2-0.7,1.9-0.8c2.7-0.2,3.7,2.9,3.9,5.4c0.8,6.8,1.5,13.5,2.3,20.3
		c4.6-4.1,10.2-7.1,16.2-8.5c1.2-0.3,2.6-0.5,3.7,0.2c0.9,0.6,1.4,1.7,1.6,2.8c1,4.9-1.9,9.7-5,13.6c-2.5,3.1-5.2,6.1-8,8.9
		c6.8,0.7,13.6,1.5,20.5,2.2c2.8,0.3,5.6,0.6,7.7,2.7c1,1,1.7,2.4,1.5,3.9c-0.3,2.5-2.6,3.6-4.6,4.5c-6.7,2.9-13.4,5.8-20.1,8.6
		l13.8,8.7c1.2,0.8,2.3,1.8,2.9,3.1c1.8,3.6-0.7,6-3.3,7.1c-6.8,3-14.6-0.1-21.4-3.2c2.9,5.1,5.7,10.4,8.3,15.6
		c0.5,1.1,1.1,2.4,0.1,3.6c-0.8,1-2.2,1.3-3.5,1c-5.2-1.3-10.3-3.2-15.1-5.7c0.2,5.7,0.5,11.4,0.7,17.1c0,1,0.1,2-0.5,2.8
		c-0.8,1.1-2.5,1.2-3.8,1c-5.8-0.9-11.2-4.5-14.1-9.7c-0.2,4.1-0.8,8.2-1.7,12.2c-0.3,1.3-0.7,2.6-1.8,3.4c-1,0.7-2.4,0.7-3.7,0.4
		c-3.8-1-6.4-4.6-7.8-8.3s-2-7.7-3.7-11.3c-4.6,5.7-10.9,10-17.8,12.5c-1.2,0.4-2.4,0.5-3.6,0.2c-3.9-1.1-3.9-5.3-3.3-8.6
		c0.9-4.7,2.5-9.3,4.8-13.6c-7,3.7-14.8,5.7-22.7,5.8c-1,0-2.2,0-2.7-1.3c-0.5-1.1-0.3-2.3,0.3-3.3l13.8-21.3
		c-7.1,3.2-15,4.8-22.8,4.6c-1.8,0-3.5-0.9-4.4-2.4c-1.7-2.8,0.5-5.3,2.8-6.9c6.9-5,16.6-7.2,20.4-14.8c-5.6-0.6-11.6-1.3-15.6-5.4
		c-0.6-0.7-1.2-1.4-1.4-2.3c-0.8-3.1,1.7-4.9,4.1-6.2c5.5-2.9,11.5-4.7,17.7-5.4c-2.4-1.8-4.9-3.7-6-6.6c-0.4-1.2-0.5-2.5-0.2-3.8
		c0.8-3,3.4-3.7,5.8-4.1c5.3-0.9,10.7-1.4,16.1-1.2c-1.2-3.6-3.6-6.7-3.6-10.6c0-1.5,0.5-3.1,1.5-4.2c2.2-2.4,5.2-1.5,7.6-0.4
		c4,1.9,7.7,4.5,10.6,7.9c0.6,0.7,1.3,1.4,2,2.1l0.5,0.4l0-0.2C68.8,30.6,68.9,29.5,69.2,28.5z"/>
</g>
</svg>
